<svg width="1024" height="1024" viewBox="0 0 1024 1024" fill="none" xmlns="http://www.w3.org/2000/svg">
<g clip-path="url(#clip0_1_1094)">
<mask id="mask0_1_1094" style="mask-type:alpha" maskUnits="userSpaceOnUse" x="0" y="0" width="1024" height="1024">
<circle cx="512" cy="512" r="512" fill="#FBFBFB"/>
</mask>
<g mask="url(#mask0_1_1094)">
<circle cx="512" cy="512" r="512" fill="#FBFBFB"/>
<path d="M61.286 617.602C67.8818 619.958 73.0286 624.749 76.7264 631.974C89.6425 657.223 109.325 674.441 135.774 683.63C144.861 686.784 154.322 688.571 164.156 688.99C173.401 689.383 182.855 688.421 192.519 686.104C222.286 678.957 244.433 661.771 258.962 634.546C261.663 629.481 264.758 625.403 268.246 622.314C271.813 619.173 276.317 617.164 281.759 616.287C295.645 614.062 306.221 619.729 313.485 633.29C329.103 662.478 353.093 680.443 385.455 687.184C397.034 689.592 408.98 689.664 421.293 687.4C453.013 681.575 476.944 665.05 493.085 637.825C493.138 637.746 494.089 635.927 495.938 632.367C501.301 622.144 510.04 616.555 522.157 615.6C522.734 672.995 522.898 730.397 522.648 787.806C523.212 791.3 522.675 794.527 521.036 797.485C499.203 836.935 466.925 859.933 424.204 866.477C411.222 868.467 398.175 868.46 385.062 866.457C341.422 859.795 308.909 836.405 287.522 796.287C286.919 795.162 286.309 795.162 285.693 796.287C265.761 832.714 236.795 855.443 198.794 864.474C185.72 867.59 172.712 868.742 159.77 867.93C145.215 867.014 131.479 863.827 118.563 858.368C88.7836 845.79 66.4131 825.018 51.4514 796.052C50.8613 794.913 50.2843 794.913 49.7205 796.052C42.7969 809.847 33.926 822.007 23.1079 832.531C22.5703 833.054 21.9212 833.198 21.1607 832.963C21.0689 770.463 21.0755 707.962 21.1804 645.462C21.1935 638.787 23.2456 632.831 27.3368 627.596C36.3585 616.077 47.6749 612.746 61.286 617.602Z" fill="#7BE0EA"/>
<path d="M522.157 615.6C535.269 615.822 544.816 622.138 550.795 634.546C557.011 647.413 566.793 658.748 580.142 668.551C596.048 680.227 613.442 686.83 632.324 688.362C645.345 689.409 658.288 687.936 671.151 683.944C693.85 676.889 712.037 663.159 725.714 642.753C726.212 642.007 728.232 638.375 731.772 631.856C734.263 627.249 736.879 623.97 739.62 622.02C752.326 613.002 765.033 613.002 777.739 622.02C780.506 623.983 783.096 627.177 785.508 631.601C789.128 638.198 791.114 641.765 791.468 642.301C809.053 668.571 833.049 683.682 863.458 687.635C876.715 689.363 889.71 688.597 902.442 685.338C930.255 678.231 951.465 661.627 966.072 635.528C968.118 631.863 970.111 628.754 972.052 626.202C974.281 623.257 977.041 620.888 980.333 619.095C992.134 612.668 1003.44 613.807 1014.26 622.511C1021.28 628.165 1024.6 636.143 1024.21 646.444C1024.25 709.271 1024.23 772.099 1024.14 834.926C1023.03 834.991 1022.51 834.494 1022.56 833.434C1022.58 833.103 1022.54 832.785 1022.45 832.502C1022.35 832.22 1022.2 831.982 1022.01 831.804C1011.15 821.778 1002.57 810.234 996.265 797.171C995.281 795.142 994.272 795.129 993.236 797.131C979.375 824.016 958.683 843.774 931.159 856.405C911.32 865.502 890.352 869.317 868.257 867.851C855.21 866.974 842.451 864.2 829.981 859.527C798.825 847.851 775.457 826.974 759.879 796.896C759.066 795.325 758.234 795.319 757.381 796.876C743.416 822.609 724.344 841.673 700.163 854.069C679.301 864.762 656.95 869.363 633.111 867.871C619.893 867.046 607.115 864.35 594.776 859.782C564.301 848.526 540.829 827.864 524.36 797.799C524.045 797.223 523.756 797.236 523.494 797.838C522.183 800.731 521.901 803.44 522.648 805.967C522.583 885.116 522.622 964.259 522.766 1043.39C522.766 1043.81 522.976 1044.39 523.396 1045.12C523.855 1045.92 523.566 1046.7 522.53 1047.46C363.537 1047.46 204.544 1047.46 45.5505 1047.46C31.9394 1044.16 23.7832 1035.65 21.082 1021.94C20.9508 1021.24 20.9771 958.251 21.1606 832.963C21.9212 833.198 22.5703 833.054 23.1079 832.531C33.926 822.007 42.7968 809.847 49.7204 796.052C50.2843 794.913 50.8612 794.913 51.4513 796.052C66.4131 825.018 88.7836 845.79 118.563 858.368C131.479 863.827 145.215 867.014 159.77 867.93C172.712 868.741 185.72 867.59 198.794 864.474C236.795 855.443 265.761 832.714 285.693 796.287C286.309 795.162 286.919 795.162 287.522 796.287C308.909 836.405 341.422 859.795 385.062 866.457C398.175 868.46 411.222 868.467 424.204 866.477C466.925 859.933 499.203 836.935 521.035 797.485C522.675 794.527 523.212 791.3 522.648 787.806C522.898 730.397 522.734 672.995 522.157 615.6Z" fill="#3CCCDD"/>
<path d="M759.879 796.896C775.458 826.975 798.825 847.852 829.981 859.527C842.451 864.2 855.21 866.975 868.257 867.852C890.352 869.318 911.32 865.502 931.159 856.405C958.683 843.774 979.375 824.016 993.236 797.132C994.272 795.129 995.281 795.142 996.265 797.171C1002.57 810.234 1011.15 821.778 1022.01 831.804C1022.2 831.982 1022.35 832.22 1022.45 832.503C1022.54 832.785 1022.58 833.103 1022.56 833.434C1022.51 834.494 1023.03 834.992 1024.14 834.926C1024.23 894.154 1024.25 953.382 1024.21 1012.61C1025.87 1031.5 1017.63 1043.11 999.51 1047.46C840.517 1047.46 681.524 1047.46 522.53 1047.46C523.566 1046.7 523.855 1045.92 523.396 1045.12C522.976 1044.39 522.766 1043.81 522.766 1043.4C522.622 964.259 522.583 885.116 522.648 805.967C521.901 803.44 522.183 800.731 523.494 797.838C523.756 797.236 524.045 797.223 524.36 797.799C540.829 827.865 564.301 848.526 594.776 859.782C607.115 864.35 619.893 867.047 633.111 867.871C656.95 869.363 679.301 864.763 700.164 854.069C724.344 841.674 743.416 822.609 757.381 796.876C758.234 795.319 759.066 795.325 759.879 796.896Z" fill="#46B9C8"/>
</g>
<g clip-path="url(#clip1_1_1094)">
<path d="M591.191 226.734C594.035 226.734 596.878 226.734 599.722 226.734C616.116 228.066 630.717 233.519 643.523 243.093C647.338 245.942 650.867 249.096 654.109 252.556C665.313 264.504 672.304 278.751 675.081 295.297C676.622 304.464 676.539 313.718 674.833 323.059C671.984 338.648 665.207 352.246 654.5 363.853C642.163 377.233 626.911 385.617 608.744 389.006C603.322 390.015 598.108 390.38 593.103 390.101C594.217 390.347 594.632 389.923 594.347 388.828C594.371 356.85 594.357 324.872 594.305 292.894C594.305 292.773 594.278 292.657 594.226 292.557C594.175 292.457 594.102 292.377 594.013 292.325L593.636 292.112C594.466 289.197 594.94 287.37 595.058 286.631C595.911 281.237 595.447 275.964 593.665 270.812C594.12 270.784 594.347 270.488 594.347 269.924C594.324 255.838 594.338 241.617 594.39 227.26C594.392 227.168 594.355 227.079 594.289 227.012C594.222 226.945 594.131 226.907 594.035 226.905L591.148 226.884C591.162 226.832 591.177 226.782 591.191 226.734Z" fill="#FACD00"/>
<path d="M591.148 226.884L594.035 226.905C594.131 226.907 594.222 226.945 594.289 227.012C594.355 227.079 594.392 227.168 594.39 227.26C594.338 241.617 594.324 255.838 594.347 269.924C594.347 270.488 594.12 270.784 593.665 270.813C589.338 261.011 581.989 255.179 571.619 253.316C571.576 253.312 570.375 253.198 568.014 252.975C565.061 252.7 562.656 251.56 560.798 249.555C559.068 247.688 558.118 245.401 557.947 242.695C557.753 239.619 558.72 237.034 560.848 234.939C562.208 233.602 564.481 232.377 567.666 231.263C575.235 228.623 583.062 227.163 591.148 226.884Z" fill="#FFE31F"/>
<path d="M533.655 273.507C536.048 274.953 537.676 277.194 538.539 280.232C538.662 280.664 538.797 281.73 538.944 283.432C539.063 284.797 539.198 285.858 539.349 286.617C540.302 291.437 542.264 295.655 545.236 299.271C548.084 302.736 551.682 305.449 556.028 307.412C563.815 310.924 571.834 310.677 580.086 306.672C586.129 303.734 590.646 298.88 593.636 292.112L594.013 292.325C594.102 292.377 594.175 292.457 594.226 292.557C594.278 292.657 594.305 292.773 594.305 292.894C594.357 324.872 594.371 356.85 594.347 388.828C594.632 389.923 594.217 390.347 593.103 390.101C586.591 390.044 580.43 389.264 574.619 387.762C556.438 383.065 541.745 373.645 530.541 359.502C520.99 347.449 515.253 333.761 513.329 318.438C511.741 305.793 513.213 293.058 517.744 280.232C519.336 275.725 522.116 273.073 526.083 272.277C528.842 271.718 531.365 272.128 533.655 273.507Z" fill="#FFE31F"/>
<g clip-path="url(#clip2_1_1094)">
<path d="M494.849 520.565C558.323 520.341 621.796 520.242 685.27 520.27C687.321 522.321 689.372 524.372 691.423 526.423C690.523 821.112 689.985 1030.93 689.809 1155.88C689.803 1158.53 689.678 1160.46 689.433 1161.68C688.747 1162.37 688.06 1163.06 687.373 1163.74C686.325 1164.06 684.696 1164.22 682.487 1164.22C554.613 1164.52 490.676 1164.67 490.676 1164.67C488.002 1163.97 486.672 1162.02 486.685 1158.82C487.17 948.094 487.658 737.369 488.149 526.641C488.077 522.141 490.311 520.115 494.849 520.565ZM607.503 1155.07L679.787 1154.97C679.886 1154.97 679.985 1154.95 680.078 1154.91C680.171 1154.88 680.255 1154.82 680.326 1154.75C680.398 1154.68 680.454 1154.59 680.493 1154.5C680.532 1154.41 680.553 1154.3 680.553 1154.2L680.555 1114.64C680.554 1114.56 680.539 1114.49 680.508 1114.42C680.478 1114.35 680.435 1114.28 680.38 1114.23C680.325 1114.18 680.26 1114.13 680.188 1114.11C680.117 1114.08 680.041 1114.07 679.964 1114.07C670.266 1114.17 660.571 1114.14 650.878 1113.98C648.844 1113.94 647.385 1113.48 646.498 1112.6C645.131 1111.24 644.905 1109.46 645.82 1107.26C646.476 1105.68 647.638 1104.89 649.304 1104.87L679.855 1104.61C679.963 1104.61 680.07 1104.59 680.17 1104.55C680.271 1104.51 680.362 1104.45 680.438 1104.37C680.515 1104.3 680.575 1104.21 680.617 1104.11C680.658 1104.01 680.679 1103.91 680.679 1103.8L680.671 1061.2C680.672 1061.12 680.657 1061.04 680.628 1060.96C680.598 1060.89 680.555 1060.82 680.5 1060.77C680.445 1060.71 680.38 1060.67 680.308 1060.64C680.236 1060.61 680.159 1060.59 680.08 1060.59L661.011 1060.46C659.251 1060.45 658.008 1059.68 657.283 1058.15C655.875 1055.18 656.384 1053.12 658.81 1051.96C659.886 1051.46 661.633 1051.2 664.05 1051.19C669.253 1051.18 674.458 1051.17 679.667 1051.16C679.967 1051.16 680.255 1051.04 680.468 1050.82C680.681 1050.61 680.802 1050.32 680.804 1050.02L680.894 1007.84C680.896 1007.77 680.882 1007.69 680.854 1007.62C680.826 1007.55 680.784 1007.48 680.731 1007.43C680.677 1007.37 680.613 1007.33 680.543 1007.3C680.472 1007.27 680.397 1007.25 680.32 1007.25C665.896 1007.09 657.284 1007.08 654.482 1007.21C652.87 1007.29 651.393 1007.26 650.05 1007.1C648.444 1006.91 647.229 1006.26 646.403 1005.14C644.693 1002.84 645.18 1000.64 647.866 998.537C648.165 998.302 648.53 998.174 648.903 998.173L679.963 997.912C680.217 997.91 680.461 997.81 680.642 997.633C680.822 997.455 680.925 997.215 680.928 996.964L681.027 954.317C681.027 954.1 680.939 953.893 680.782 953.739C680.625 953.586 680.413 953.499 680.19 953.497L660.216 953.354C658.653 953.341 657.677 952.551 657.286 950.984C656.172 946.497 657.959 944.256 662.647 944.262C668.129 944.271 673.962 944.268 680.146 944.254C680.386 944.253 680.615 944.156 680.785 943.987C680.955 943.817 681.051 943.587 681.053 943.347L681.152 900.766C681.151 900.629 681.096 900.498 680.999 900.402C680.903 900.305 680.772 900.25 680.635 900.249C670.356 900.279 660.282 900.267 650.414 900.213C647.569 900.203 646.029 898.768 645.794 895.906C645.544 892.82 646.943 891.268 649.991 891.25L679.941 891.016C680.267 891.013 680.58 890.883 680.81 890.652C681.04 890.422 681.169 890.111 681.169 889.788L681.267 847.717C681.269 847.447 681.164 847.187 680.975 846.995C680.786 846.803 680.528 846.694 680.258 846.691C674.633 846.617 668.874 846.595 662.981 846.625C661.057 846.635 659.605 846.216 658.625 845.369C657.017 843.969 656.67 842.248 657.585 840.207C658.152 838.939 659.089 838.139 660.395 837.807C661.481 837.53 662.794 837.388 664.335 837.379C669.334 837.367 674.688 837.357 680.395 837.349C680.634 837.345 680.862 837.248 681.031 837.079C681.2 836.91 681.297 836.681 681.302 836.443L681.392 794.117C681.393 794.017 681.375 793.918 681.337 793.826C681.299 793.733 681.243 793.649 681.172 793.578C681.102 793.507 681.017 793.451 680.924 793.412C680.83 793.374 680.73 793.354 680.629 793.354C670.794 793.377 660.945 793.463 651.082 793.612C647.957 793.663 646.208 792.266 645.837 789.422C645.578 787.394 646.242 785.91 647.829 784.968C648.718 784.44 650.131 784.171 652.066 784.161C661.243 784.139 670.689 784.117 680.404 784.095C680.536 784.096 680.667 784.071 680.79 784.02C680.913 783.97 681.025 783.895 681.119 783.801C681.213 783.707 681.288 783.595 681.339 783.471C681.391 783.347 681.417 783.215 681.418 783.081L681.516 740.698C681.516 740.46 681.422 740.232 681.253 740.063C681.084 739.895 680.855 739.798 680.614 739.795L660.837 739.553C660.448 739.549 660.076 739.42 659.777 739.186C656.417 736.584 656.358 733.942 659.598 731.259C659.908 731.003 660.277 730.86 660.644 730.853L680.529 730.478C680.799 730.474 681.057 730.367 681.247 730.18C681.437 729.993 681.543 729.742 681.542 729.481L681.649 687.155C681.648 686.966 681.573 686.785 681.439 686.651C681.306 686.518 681.125 686.442 680.935 686.441C670.788 686.47 660.78 686.48 650.912 686.47C647.995 686.466 646.456 684.97 646.293 681.983C646.129 679.105 647.438 677.649 650.217 677.615L680.192 677.224C680.587 677.218 680.965 677.062 681.243 676.791C681.521 676.519 681.676 676.154 681.676 675.774L681.765 633.958C681.766 633.829 681.741 633.701 681.692 633.582C681.643 633.463 681.57 633.355 681.478 633.265C681.386 633.174 681.277 633.104 681.157 633.056C681.038 633.009 680.909 632.986 680.78 632.99C674.733 633.097 668.889 633.067 663.248 632.899C661.417 632.848 660.075 632.506 659.221 631.872C657.82 630.823 657.322 629.33 657.727 627.394C658.27 624.827 659.783 623.582 662.267 623.658C663.714 623.71 664.465 623.735 664.52 623.735C669.668 623.531 675.115 623.472 680.86 623.557C680.982 623.559 681.104 623.537 681.218 623.492C681.332 623.446 681.436 623.378 681.523 623.292C681.611 623.206 681.68 623.104 681.728 622.991C681.775 622.878 681.8 622.756 681.8 622.634L681.89 580.308C681.891 580.208 681.873 580.109 681.835 580.017C681.797 579.924 681.741 579.84 681.67 579.769C681.6 579.698 681.515 579.642 681.422 579.604C681.328 579.565 681.228 579.545 681.127 579.545C671.292 579.568 661.44 579.635 651.572 579.746C648.096 579.787 646.422 578.135 646.55 574.79C646.609 573.211 647.245 572.039 648.458 571.274C649.205 570.812 650.387 570.56 652.004 570.518C661.423 570.299 671.07 570.224 680.943 570.294C681.056 570.295 681.169 570.274 681.275 570.232C681.38 570.189 681.476 570.126 681.557 570.047C681.638 569.967 681.703 569.872 681.748 569.767C681.792 569.663 681.816 569.551 681.817 569.437L682.007 529.964C682.008 529.888 681.993 529.812 681.964 529.741C681.935 529.67 681.892 529.605 681.838 529.551C681.784 529.497 681.719 529.454 681.648 529.425C681.577 529.396 681.501 529.381 681.425 529.382L608.96 529.616L497.952 529.801C497.805 529.804 497.664 529.864 497.559 529.969C497.455 530.073 497.395 530.214 497.392 530.361L496.044 1154.72C496.043 1154.8 496.058 1154.87 496.086 1154.94C496.115 1155.02 496.157 1155.08 496.21 1155.13C496.264 1155.19 496.327 1155.23 496.397 1155.26C496.468 1155.28 496.543 1155.3 496.619 1155.3L607.503 1155.07Z" fill="#2F3A5A"/>
<path d="M497.952 529.801L608.96 529.616C609.053 543.777 609.009 557.938 608.828 572.099C608.827 572.351 608.764 572.54 608.638 572.667C608.456 572.848 608.234 572.911 607.971 572.857C602.531 566.384 596.107 563.406 588.7 563.922C580.815 564.478 574.81 567.748 570.684 573.734C566.586 579.691 565.314 585.837 566.867 592.171C568.306 598.05 571.554 602.787 576.611 606.383C582.533 610.59 589.337 611.509 597.023 609.14C600.304 608.123 603.519 606.013 606.668 602.81C607.872 601.124 608.601 601.133 608.855 602.838C608.974 603.594 608.523 787.672 607.503 1155.07L496.619 1155.3C496.543 1155.3 496.468 1155.28 496.398 1155.26C496.327 1155.23 496.264 1155.19 496.21 1155.13C496.157 1155.08 496.115 1155.02 496.086 1154.94C496.058 1154.87 496.043 1154.8 496.044 1154.72L497.392 530.362C497.395 530.214 497.455 530.073 497.559 529.969C497.664 529.864 497.805 529.804 497.952 529.801Z" fill="#FFC943"/>
<path d="M608.96 529.616L681.425 529.382C681.501 529.381 681.577 529.396 681.648 529.425C681.719 529.454 681.784 529.497 681.838 529.551C681.892 529.605 681.935 529.67 681.964 529.741C681.993 529.812 682.008 529.888 682.007 529.964L681.817 569.437C681.816 569.551 681.792 569.663 681.748 569.767C681.703 569.872 681.638 569.967 681.557 570.047C681.476 570.126 681.38 570.189 681.275 570.232C681.169 570.274 681.056 570.295 680.943 570.294C671.07 570.224 661.423 570.299 652.004 570.518C650.387 570.56 649.205 570.812 648.458 571.275C647.245 572.039 646.609 573.211 646.551 574.79C646.422 578.135 648.096 579.787 651.572 579.746C661.44 579.635 671.292 579.568 681.127 579.545C681.228 579.545 681.328 579.565 681.422 579.604C681.515 579.642 681.6 579.698 681.671 579.769C681.741 579.84 681.797 579.924 681.835 580.017C681.873 580.109 681.891 580.208 681.89 580.308L681.8 622.634C681.8 622.756 681.775 622.878 681.728 622.991C681.68 623.104 681.611 623.206 681.523 623.292C681.436 623.378 681.332 623.446 681.218 623.492C681.104 623.537 680.982 623.559 680.86 623.557C675.115 623.472 669.668 623.531 664.52 623.735C664.465 623.735 663.714 623.71 662.267 623.658C659.783 623.582 658.27 624.827 657.727 627.394C657.322 629.33 657.82 630.823 659.221 631.872C660.075 632.506 661.417 632.848 663.248 632.899C668.889 633.067 674.733 633.097 680.78 632.99C680.909 632.986 681.038 633.009 681.157 633.056C681.277 633.104 681.386 633.174 681.478 633.265C681.57 633.355 681.643 633.463 681.692 633.582C681.741 633.701 681.766 633.829 681.765 633.958L681.676 675.774C681.676 676.154 681.521 676.519 681.243 676.791C680.965 677.063 680.587 677.218 680.192 677.224L650.217 677.615C647.438 677.649 646.129 679.105 646.293 681.983C646.456 684.97 647.995 686.466 650.912 686.47C660.78 686.48 670.788 686.47 680.936 686.441C681.125 686.442 681.306 686.518 681.439 686.651C681.573 686.785 681.648 686.966 681.649 687.155L681.542 729.481C681.543 729.742 681.437 729.993 681.247 730.18C681.057 730.367 680.799 730.474 680.529 730.478L660.644 730.853C660.277 730.86 659.908 731.003 659.598 731.259C656.358 733.942 656.417 736.584 659.777 739.186C660.076 739.42 660.448 739.549 660.837 739.553L680.614 739.795C680.855 739.798 681.084 739.895 681.253 740.063C681.422 740.232 681.516 740.46 681.516 740.698L681.418 783.081C681.417 783.215 681.391 783.347 681.339 783.471C681.288 783.595 681.213 783.707 681.119 783.801C681.025 783.895 680.913 783.97 680.79 784.02C680.667 784.071 680.536 784.096 680.404 784.095C670.689 784.117 661.243 784.139 652.066 784.161C650.131 784.171 648.718 784.44 647.829 784.968C646.242 785.91 645.578 787.394 645.837 789.422C646.208 792.266 647.957 793.663 651.082 793.612C660.945 793.463 670.794 793.377 680.629 793.354C680.73 793.354 680.83 793.374 680.924 793.412C681.017 793.451 681.102 793.507 681.173 793.578C681.243 793.649 681.299 793.733 681.337 793.826C681.375 793.918 681.393 794.017 681.392 794.117L681.302 836.443C681.297 836.682 681.2 836.91 681.031 837.079C680.862 837.248 680.634 837.345 680.395 837.349C674.688 837.357 669.334 837.367 664.335 837.379C662.794 837.388 661.481 837.531 660.395 837.807C659.089 838.139 658.152 838.939 657.585 840.207C656.67 842.248 657.017 843.969 658.625 845.369C659.605 846.216 661.057 846.635 662.981 846.625C668.874 846.595 674.633 846.617 680.258 846.691C680.528 846.694 680.786 846.803 680.975 846.995C681.164 847.187 681.269 847.447 681.267 847.717L681.169 889.788C681.169 890.111 681.04 890.422 680.81 890.652C680.58 890.883 680.267 891.013 679.941 891.016L649.991 891.25C646.943 891.268 645.544 892.82 645.794 895.906C646.029 898.768 647.569 900.203 650.414 900.213C660.282 900.267 670.356 900.279 680.635 900.249C680.772 900.25 680.903 900.305 680.999 900.402C681.096 900.498 681.151 900.629 681.152 900.766L681.053 943.347C681.051 943.587 680.955 943.817 680.785 943.987C680.616 944.156 680.386 944.253 680.146 944.254C673.962 944.268 668.129 944.271 662.647 944.262C657.959 944.256 656.172 946.497 657.286 950.984C657.677 952.551 658.654 953.341 660.216 953.354L680.19 953.497C680.413 953.499 680.626 953.586 680.782 953.739C680.939 953.893 681.027 954.1 681.027 954.317L680.928 996.964C680.925 997.215 680.822 997.455 680.642 997.633C680.461 997.81 680.217 997.91 679.963 997.912L648.903 998.173C648.53 998.174 648.165 998.302 647.866 998.537C645.18 1000.64 644.693 1002.84 646.403 1005.14C647.229 1006.26 648.444 1006.91 650.05 1007.1C651.393 1007.26 652.87 1007.29 654.482 1007.21C657.284 1007.08 665.896 1007.09 680.32 1007.25C680.397 1007.25 680.472 1007.27 680.543 1007.3C680.613 1007.33 680.677 1007.37 680.731 1007.43C680.784 1007.48 680.826 1007.55 680.854 1007.62C680.882 1007.69 680.896 1007.77 680.894 1007.84L680.804 1050.02C680.802 1050.32 680.681 1050.61 680.468 1050.82C680.255 1051.04 679.967 1051.16 679.667 1051.16C674.458 1051.17 669.253 1051.18 664.05 1051.19C661.633 1051.2 659.886 1051.46 658.81 1051.96C656.384 1053.12 655.875 1055.18 657.283 1058.15C658.008 1059.68 659.251 1060.45 661.011 1060.46L680.081 1060.59C680.159 1060.59 680.236 1060.61 680.308 1060.64C680.38 1060.67 680.445 1060.71 680.5 1060.77C680.555 1060.82 680.598 1060.89 680.628 1060.96C680.657 1061.04 680.672 1061.12 680.671 1061.2L680.679 1103.8C680.679 1103.91 680.658 1104.01 680.617 1104.11C680.575 1104.21 680.515 1104.3 680.438 1104.37C680.362 1104.45 680.271 1104.51 680.171 1104.55C680.07 1104.59 679.963 1104.61 679.855 1104.61L649.304 1104.87C647.638 1104.89 646.476 1105.68 645.82 1107.26C644.905 1109.46 645.131 1111.24 646.498 1112.6C647.385 1113.48 648.844 1113.94 650.878 1113.98C660.571 1114.14 670.266 1114.17 679.964 1114.07C680.041 1114.07 680.117 1114.08 680.189 1114.11C680.26 1114.13 680.325 1114.18 680.38 1114.23C680.435 1114.28 680.478 1114.35 680.508 1114.42C680.539 1114.49 680.554 1114.56 680.555 1114.64L680.553 1154.2C680.553 1154.3 680.532 1154.41 680.493 1154.5C680.454 1154.59 680.398 1154.68 680.326 1154.75C680.255 1154.82 680.171 1154.88 680.078 1154.91C679.986 1154.95 679.886 1154.97 679.787 1154.97L607.503 1155.07C608.523 787.672 608.974 603.594 608.855 602.838C608.601 601.133 607.872 601.124 606.668 602.81C612.533 595.85 614.174 588.182 611.59 579.806C610.904 577.593 609.698 575.276 607.971 572.857C608.234 572.911 608.456 572.848 608.638 572.667C608.764 572.54 608.827 572.351 608.828 572.099C609.009 557.938 609.053 543.777 608.96 529.616Z" fill="#F7B521"/>
<path d="M588.7 563.922C596.107 563.406 602.531 566.384 607.971 572.857C609.698 575.276 610.904 577.593 611.589 579.806C614.174 588.182 612.533 595.85 606.668 602.81C603.519 606.013 600.304 608.123 597.023 609.14C589.337 611.509 582.533 610.59 576.611 606.383C571.554 602.787 568.306 598.05 566.867 592.171C565.314 585.837 566.586 579.691 570.684 573.734C574.81 567.748 580.815 564.478 588.7 563.922ZM599.334 577.293C596.743 574.702 593.223 573.251 589.55 573.259C585.876 573.268 582.35 574.735 579.746 577.339C577.143 579.943 575.675 583.469 575.666 587.142C575.658 590.816 577.109 594.336 579.7 596.927C582.292 599.519 585.812 600.97 589.485 600.961C593.159 600.953 596.685 599.485 599.289 596.881C601.892 594.278 603.36 590.751 603.368 587.078C603.377 583.404 601.926 579.885 599.334 577.293Z" fill="#2F3A5A"/>
</g>
</g>
</g>
<defs>
<clipPath id="clip0_1_1094">
<rect width="1024" height="1024" fill="white"/>
</clipPath>
<clipPath id="clip1_1_1094">
<rect width="728" height="728" fill="white" transform="translate(148 140)"/>
</clipPath>
<clipPath id="clip2_1_1094">
<rect width="596.826" height="594.052" fill="white" transform="translate(165.981 845.019) rotate(-45)"/>
</clipPath>
</defs>
</svg>
